<mxfile host="app.diagrams.net" agent="Mozilla/5.0 (Macintosh; Intel Mac OS X 10_15_7) AppleWebKit/537.36 (KHTML, like Gecko) Chrome/138.0.0.0 Safari/537.36" version="27.2.0">
  <diagram name="Page-1" id="8psTu5joOEkHxSPbt8DS">
    <mxGraphModel dx="1773" dy="1755" grid="1" gridSize="10" guides="1" tooltips="1" connect="1" arrows="1" fold="1" page="1" pageScale="1" pageWidth="827" pageHeight="1169" math="0" shadow="0">
      <root>
        <mxCell id="0" />
        <mxCell id="1" parent="0" />
        <mxCell id="5wcGb58u3SQSDJ49Bvyi-1" value="&lt;font style=&quot;font-size: 18px;&quot;&gt;AXI STREAM&lt;/font&gt;&lt;div&gt;&lt;font size=&quot;3&quot;&gt;Interface&lt;/font&gt;&lt;/div&gt;&lt;div&gt;&lt;font size=&quot;3&quot;&gt;(Slave)&lt;/font&gt;&lt;/div&gt;" style="rounded=0;whiteSpace=wrap;html=1;" parent="1" vertex="1">
          <mxGeometry x="160" y="20" width="170" height="179.5" as="geometry" />
        </mxCell>
        <mxCell id="5wcGb58u3SQSDJ49Bvyi-8" value="&lt;font style=&quot;font-size: 24px;&quot;&gt;AXI MEM (Master)&lt;/font&gt;" style="whiteSpace=wrap;html=1;" parent="1" vertex="1">
          <mxGeometry x="165" y="-149.12" width="1540" height="60" as="geometry" />
        </mxCell>
        <mxCell id="5wcGb58u3SQSDJ49Bvyi-29" value="" style="endArrow=classic;html=1;rounded=0;strokeWidth=3;" parent="1" edge="1">
          <mxGeometry width="50" height="50" relative="1" as="geometry">
            <mxPoint x="1280" y="-90" as="sourcePoint" />
            <mxPoint x="1280" y="2.49" as="targetPoint" />
          </mxGeometry>
        </mxCell>
        <mxCell id="5wcGb58u3SQSDJ49Bvyi-28" value="&lt;font style=&quot;font-size: 18px;&quot;&gt;AXI STREAM&lt;/font&gt;&lt;div&gt;&lt;font size=&quot;3&quot;&gt;Interface&lt;/font&gt;&lt;/div&gt;&lt;div&gt;&lt;font size=&quot;3&quot;&gt;(Master)&lt;/font&gt;&lt;/div&gt;" style="rounded=0;whiteSpace=wrap;html=1;" parent="1" vertex="1">
          <mxGeometry x="1600" y="43.62" width="110" height="176.38" as="geometry" />
        </mxCell>
        <mxCell id="1Rf1SUsvrOOBmwsHc8l4-15" value="" style="swimlane;startSize=0;" parent="1" vertex="1">
          <mxGeometry x="112.5" y="-190" width="1645" height="706.32" as="geometry" />
        </mxCell>
        <mxCell id="1Rf1SUsvrOOBmwsHc8l4-16" value="&lt;font style=&quot;font-size: 36px;&quot;&gt;&lt;b&gt;Digital Video Motion Detector&lt;/b&gt;&lt;/font&gt;" style="text;html=1;align=center;verticalAlign=middle;whiteSpace=wrap;rounded=0;" parent="1Rf1SUsvrOOBmwsHc8l4-15" vertex="1">
          <mxGeometry x="530" y="130" width="530" height="30" as="geometry" />
        </mxCell>
        <mxCell id="1Rf1SUsvrOOBmwsHc8l4-17" value="&lt;font style=&quot;font-size: 18px;&quot;&gt;AXI LITE&lt;/font&gt;&lt;div&gt;&lt;font size=&quot;3&quot;&gt;Interface&lt;/font&gt;&lt;/div&gt;&lt;div&gt;&lt;font size=&quot;3&quot;&gt;(Slave)&lt;/font&gt;&lt;/div&gt;" style="whiteSpace=wrap;html=1;" parent="1" vertex="1">
          <mxGeometry x="165" y="320" width="75" height="181" as="geometry" />
        </mxCell>
        <mxCell id="1Rf1SUsvrOOBmwsHc8l4-18" value="&lt;font style=&quot;font-size: 24px;&quot;&gt;Control&lt;/font&gt;" style="rounded=0;whiteSpace=wrap;html=1;" parent="1" vertex="1">
          <mxGeometry x="280" y="405.5" width="1420" height="60" as="geometry" />
        </mxCell>
        <mxCell id="1Rf1SUsvrOOBmwsHc8l4-19" value="" style="endArrow=classic;startArrow=classic;html=1;rounded=0;exitX=1.022;exitY=0.641;exitDx=0;exitDy=0;entryX=0;entryY=0.5;entryDx=0;entryDy=0;strokeWidth=3;exitPerimeter=0;" parent="1" source="1Rf1SUsvrOOBmwsHc8l4-17" target="1Rf1SUsvrOOBmwsHc8l4-18" edge="1">
          <mxGeometry width="50" height="50" relative="1" as="geometry">
            <mxPoint x="354" y="125.5" as="sourcePoint" />
            <mxPoint x="404" y="75.5" as="targetPoint" />
          </mxGeometry>
        </mxCell>
        <mxCell id="YUo0tV-gyAyulcyTNa2H-15" value="" style="endArrow=classic;startArrow=classic;html=1;rounded=0;strokeWidth=3;exitX=0.367;exitY=1.002;exitDx=0;exitDy=0;exitPerimeter=0;" parent="1" source="5wcGb58u3SQSDJ49Bvyi-28" edge="1">
          <mxGeometry width="50" height="50" relative="1" as="geometry">
            <mxPoint x="1640" y="230" as="sourcePoint" />
            <mxPoint x="1640" y="400" as="targetPoint" />
          </mxGeometry>
        </mxCell>
        <mxCell id="dtxXoNMcvbrdOsO5oj5G-2" value="" style="edgeStyle=orthogonalEdgeStyle;rounded=0;orthogonalLoop=1;jettySize=auto;html=1;strokeWidth=3;exitX=1.008;exitY=0.565;exitDx=0;exitDy=0;exitPerimeter=0;" parent="1" source="5wcGb58u3SQSDJ49Bvyi-1" edge="1">
          <mxGeometry relative="1" as="geometry">
            <mxPoint x="560" y="121" as="targetPoint" />
            <mxPoint x="250" y="121" as="sourcePoint" />
          </mxGeometry>
        </mxCell>
        <mxCell id="XOc9_vDRdyOMPMZFaufi-3" value="" style="endArrow=classic;html=1;rounded=0;exitX=0;exitY=0.318;exitDx=0;exitDy=0;exitPerimeter=0;strokeWidth=3;" parent="1" edge="1">
          <mxGeometry width="50" height="50" relative="1" as="geometry">
            <mxPoint x="160" y="187.37" as="sourcePoint" />
            <mxPoint y="187.37" as="targetPoint" />
          </mxGeometry>
        </mxCell>
        <mxCell id="XOc9_vDRdyOMPMZFaufi-4" value="" style="endArrow=classic;html=1;rounded=0;strokeWidth=3;" parent="1" edge="1">
          <mxGeometry width="50" height="50" relative="1" as="geometry">
            <mxPoint y="157.37" as="sourcePoint" />
            <mxPoint x="160" y="157.37" as="targetPoint" />
          </mxGeometry>
        </mxCell>
        <mxCell id="XOc9_vDRdyOMPMZFaufi-8" value="&lt;font face=&quot;Times New Roman&quot; style=&quot;font-size: 24px;&quot;&gt;[31:0]pixel&lt;/font&gt;" style="text;html=1;align=center;verticalAlign=middle;whiteSpace=wrap;rounded=0;" parent="1" vertex="1">
          <mxGeometry x="-1.5" y="90.87000000000002" width="70" height="30" as="geometry" />
        </mxCell>
        <mxCell id="XOc9_vDRdyOMPMZFaufi-9" value="&lt;font style=&quot;font-size: 24px;&quot; face=&quot;Times New Roman&quot;&gt;valid&lt;/font&gt;" style="text;html=1;align=center;verticalAlign=middle;whiteSpace=wrap;rounded=0;" parent="1" vertex="1">
          <mxGeometry x="-10" y="60.87000000000001" width="70" height="30" as="geometry" />
        </mxCell>
        <mxCell id="XOc9_vDRdyOMPMZFaufi-10" value="&lt;font face=&quot;Times New Roman&quot; style=&quot;font-size: 24px;&quot;&gt;in_last&lt;/font&gt;" style="text;html=1;align=center;verticalAlign=middle;whiteSpace=wrap;rounded=0;" parent="1" vertex="1">
          <mxGeometry x="-10" y="127.37" width="70" height="30" as="geometry" />
        </mxCell>
        <mxCell id="XOc9_vDRdyOMPMZFaufi-11" value="&lt;font face=&quot;Times New Roman&quot; style=&quot;font-size: 24px;&quot;&gt;in_ready&lt;/font&gt;" style="text;html=1;align=center;verticalAlign=middle;resizable=0;points=[];autosize=1;strokeColor=none;fillColor=none;" parent="1" vertex="1">
          <mxGeometry x="-19.5" y="152.37" width="110" height="40" as="geometry" />
        </mxCell>
        <mxCell id="XOc9_vDRdyOMPMZFaufi-34" value="&lt;font face=&quot;Times New Roman&quot; style=&quot;font-size: 24px;&quot;&gt;clk&lt;/font&gt;" style="text;html=1;align=center;verticalAlign=middle;whiteSpace=wrap;rounded=0;" parent="1" vertex="1">
          <mxGeometry x="-10" y="11.370000000000001" width="70" height="30" as="geometry" />
        </mxCell>
        <mxCell id="XOc9_vDRdyOMPMZFaufi-36" value="&lt;font style=&quot;font-size: 24px;&quot; face=&quot;Times New Roman&quot;&gt;rst&lt;/font&gt;" style="text;html=1;align=center;verticalAlign=middle;whiteSpace=wrap;rounded=0;" parent="1" vertex="1">
          <mxGeometry x="-10" y="37.37000000000001" width="70" height="30" as="geometry" />
        </mxCell>
        <mxCell id="XOc9_vDRdyOMPMZFaufi-45" value="" style="edgeStyle=orthogonalEdgeStyle;rounded=0;orthogonalLoop=1;jettySize=auto;html=1;strokeWidth=3;" parent="1" edge="1">
          <mxGeometry relative="1" as="geometry">
            <mxPoint x="340" y="-277.62" as="targetPoint" />
            <mxPoint x="340" y="-149.12" as="sourcePoint" />
          </mxGeometry>
        </mxCell>
        <mxCell id="XOc9_vDRdyOMPMZFaufi-46" value="" style="edgeStyle=orthogonalEdgeStyle;rounded=0;orthogonalLoop=1;jettySize=auto;html=1;strokeWidth=3;" parent="1" edge="1">
          <mxGeometry relative="1" as="geometry">
            <mxPoint x="436.58" y="-149.12" as="targetPoint" />
            <mxPoint x="436.58" y="-272.62" as="sourcePoint" />
          </mxGeometry>
        </mxCell>
        <mxCell id="XOc9_vDRdyOMPMZFaufi-47" value="" style="edgeStyle=orthogonalEdgeStyle;rounded=0;orthogonalLoop=1;jettySize=auto;html=1;strokeWidth=3;" parent="1" edge="1">
          <mxGeometry relative="1" as="geometry">
            <mxPoint x="242" y="-277.62" as="targetPoint" />
            <mxPoint x="242" y="-149.12" as="sourcePoint" />
          </mxGeometry>
        </mxCell>
        <mxCell id="XOc9_vDRdyOMPMZFaufi-54" value="&lt;font style=&quot;font-size: 24px;&quot; face=&quot;Times New Roman&quot;&gt;ARready&lt;/font&gt;" style="text;html=1;align=center;verticalAlign=middle;whiteSpace=wrap;rounded=0;" parent="1" vertex="1">
          <mxGeometry x="360" y="-255.87" width="60" height="30" as="geometry" />
        </mxCell>
        <mxCell id="XOc9_vDRdyOMPMZFaufi-56" value="&lt;font face=&quot;Times New Roman&quot; style=&quot;font-size: 24px;&quot;&gt;ARvalid&lt;/font&gt;" style="text;html=1;align=center;verticalAlign=middle;resizable=0;points=[];autosize=1;strokeColor=none;fillColor=none;" parent="1" vertex="1">
          <mxGeometry x="240" y="-261.37" width="100" height="40" as="geometry" />
        </mxCell>
        <mxCell id="XOc9_vDRdyOMPMZFaufi-77" value="" style="edgeStyle=orthogonalEdgeStyle;rounded=0;orthogonalLoop=1;jettySize=auto;html=1;strokeWidth=3;entryX=0.179;entryY=1.014;entryDx=0;entryDy=0;entryPerimeter=0;" parent="1" target="5wcGb58u3SQSDJ49Bvyi-8" edge="1">
          <mxGeometry relative="1" as="geometry">
            <mxPoint x="440" y="-40" as="targetPoint" />
            <mxPoint x="439.89" y="122.5" as="sourcePoint" />
          </mxGeometry>
        </mxCell>
        <mxCell id="XOc9_vDRdyOMPMZFaufi-78" value="&lt;font face=&quot;Times New Roman&quot; style=&quot;font-size: 18px;&quot;&gt;[31:0]Rdata&lt;/font&gt;" style="text;html=1;align=center;verticalAlign=middle;whiteSpace=wrap;rounded=0;" parent="1" vertex="1">
          <mxGeometry x="1300" y="-70" width="60" height="30" as="geometry" />
        </mxCell>
        <mxCell id="XOc9_vDRdyOMPMZFaufi-80" value="&lt;font face=&quot;Times New Roman&quot; style=&quot;font-size: 24px;&quot;&gt;[31:0]ARaddr&lt;/font&gt;" style="text;html=1;align=center;verticalAlign=middle;whiteSpace=wrap;rounded=0;" parent="1" vertex="1">
          <mxGeometry x="140" y="-255.87" width="60" height="30" as="geometry" />
        </mxCell>
        <mxCell id="XOc9_vDRdyOMPMZFaufi-82" value="" style="edgeStyle=orthogonalEdgeStyle;rounded=0;orthogonalLoop=1;jettySize=auto;html=1;strokeWidth=3;" parent="1" edge="1">
          <mxGeometry relative="1" as="geometry">
            <mxPoint x="650" y="-149.12" as="targetPoint" />
            <mxPoint x="650" y="-272.62" as="sourcePoint" />
          </mxGeometry>
        </mxCell>
        <mxCell id="XOc9_vDRdyOMPMZFaufi-84" value="&lt;font face=&quot;Times New Roman&quot; style=&quot;font-size: 24px;&quot;&gt;Rready&lt;/font&gt;" style="text;html=1;align=center;verticalAlign=middle;whiteSpace=wrap;rounded=0;" parent="1" vertex="1">
          <mxGeometry x="748" y="-258.37" width="60" height="30" as="geometry" />
        </mxCell>
        <mxCell id="XOc9_vDRdyOMPMZFaufi-85" value="&lt;font face=&quot;Times New Roman&quot; style=&quot;font-size: 24px;&quot;&gt;Rvalid&lt;/font&gt;" style="text;html=1;align=center;verticalAlign=middle;resizable=0;points=[];autosize=1;strokeColor=none;fillColor=none;" parent="1" vertex="1">
          <mxGeometry x="570" y="-260.87" width="90" height="40" as="geometry" />
        </mxCell>
        <mxCell id="XOc9_vDRdyOMPMZFaufi-86" value="&lt;font style=&quot;font-size: 24px;&quot; face=&quot;Times New Roman&quot;&gt;[31:0]Rdata&lt;/font&gt;" style="text;html=1;align=center;verticalAlign=middle;whiteSpace=wrap;rounded=0;" parent="1" vertex="1">
          <mxGeometry x="480" y="-258.37" width="60" height="30" as="geometry" />
        </mxCell>
        <mxCell id="XOc9_vDRdyOMPMZFaufi-87" value="" style="edgeStyle=orthogonalEdgeStyle;rounded=0;orthogonalLoop=1;jettySize=auto;html=1;strokeWidth=3;" parent="1" edge="1">
          <mxGeometry relative="1" as="geometry">
            <mxPoint x="812.58" y="-277.62" as="targetPoint" />
            <mxPoint x="812.58" y="-149.12" as="sourcePoint" />
          </mxGeometry>
        </mxCell>
        <mxCell id="XOc9_vDRdyOMPMZFaufi-88" value="" style="edgeStyle=orthogonalEdgeStyle;rounded=0;orthogonalLoop=1;jettySize=auto;html=1;strokeWidth=3;" parent="1" edge="1">
          <mxGeometry relative="1" as="geometry">
            <mxPoint x="569" y="-153.5" as="targetPoint" />
            <mxPoint x="569" y="-277" as="sourcePoint" />
          </mxGeometry>
        </mxCell>
        <mxCell id="XOc9_vDRdyOMPMZFaufi-91" value="" style="edgeStyle=orthogonalEdgeStyle;rounded=0;orthogonalLoop=1;jettySize=auto;html=1;strokeWidth=3;" parent="1" edge="1">
          <mxGeometry relative="1" as="geometry">
            <mxPoint x="1109.58" y="-277.62" as="targetPoint" />
            <mxPoint x="1109.58" y="-149.12" as="sourcePoint" />
          </mxGeometry>
        </mxCell>
        <mxCell id="XOc9_vDRdyOMPMZFaufi-92" value="" style="edgeStyle=orthogonalEdgeStyle;rounded=0;orthogonalLoop=1;jettySize=auto;html=1;strokeWidth=3;" parent="1" edge="1">
          <mxGeometry relative="1" as="geometry">
            <mxPoint x="1203" y="-149.12" as="targetPoint" />
            <mxPoint x="1203" y="-272.62" as="sourcePoint" />
          </mxGeometry>
        </mxCell>
        <mxCell id="XOc9_vDRdyOMPMZFaufi-93" value="" style="edgeStyle=orthogonalEdgeStyle;rounded=0;orthogonalLoop=1;jettySize=auto;html=1;strokeWidth=3;" parent="1" edge="1">
          <mxGeometry relative="1" as="geometry">
            <mxPoint x="1003" y="-278.37" as="targetPoint" />
            <mxPoint x="1003" y="-149.87" as="sourcePoint" />
          </mxGeometry>
        </mxCell>
        <mxCell id="XOc9_vDRdyOMPMZFaufi-94" value="&lt;font face=&quot;Times New Roman&quot; style=&quot;font-size: 24px;&quot;&gt;AWready&lt;/font&gt;" style="text;html=1;align=center;verticalAlign=middle;whiteSpace=wrap;rounded=0;" parent="1" vertex="1">
          <mxGeometry x="1130" y="-256.37" width="60" height="30" as="geometry" />
        </mxCell>
        <mxCell id="XOc9_vDRdyOMPMZFaufi-95" value="&lt;font face=&quot;Times New Roman&quot; style=&quot;font-size: 24px;&quot;&gt;AWvalid&lt;/font&gt;" style="text;html=1;align=center;verticalAlign=middle;resizable=0;points=[];autosize=1;strokeColor=none;fillColor=none;" parent="1" vertex="1">
          <mxGeometry x="1006" y="-261.37" width="110" height="40" as="geometry" />
        </mxCell>
        <mxCell id="XOc9_vDRdyOMPMZFaufi-96" value="&lt;font style=&quot;font-size: 24px;&quot; face=&quot;Times New Roman&quot;&gt;[31:0]AWaddr&lt;/font&gt;" style="text;html=1;align=center;verticalAlign=middle;whiteSpace=wrap;rounded=0;" parent="1" vertex="1">
          <mxGeometry x="900" y="-256.37" width="60" height="30" as="geometry" />
        </mxCell>
        <mxCell id="XOc9_vDRdyOMPMZFaufi-97" value="" style="edgeStyle=orthogonalEdgeStyle;rounded=0;orthogonalLoop=1;jettySize=auto;html=1;strokeWidth=3;" parent="1" edge="1">
          <mxGeometry relative="1" as="geometry">
            <mxPoint x="1480" y="-277.62" as="targetPoint" />
            <mxPoint x="1480" y="-149.12" as="sourcePoint" />
          </mxGeometry>
        </mxCell>
        <mxCell id="XOc9_vDRdyOMPMZFaufi-98" value="" style="edgeStyle=orthogonalEdgeStyle;rounded=0;orthogonalLoop=1;jettySize=auto;html=1;strokeWidth=3;" parent="1" edge="1">
          <mxGeometry relative="1" as="geometry">
            <mxPoint x="1582" y="-149.12" as="targetPoint" />
            <mxPoint x="1582" y="-272.62" as="sourcePoint" />
          </mxGeometry>
        </mxCell>
        <mxCell id="XOc9_vDRdyOMPMZFaufi-99" value="" style="edgeStyle=orthogonalEdgeStyle;rounded=0;orthogonalLoop=1;jettySize=auto;html=1;strokeWidth=3;" parent="1" edge="1">
          <mxGeometry relative="1" as="geometry">
            <mxPoint x="1380" y="-277.62" as="targetPoint" />
            <mxPoint x="1380" y="-149.12" as="sourcePoint" />
          </mxGeometry>
        </mxCell>
        <mxCell id="XOc9_vDRdyOMPMZFaufi-100" value="&lt;font face=&quot;Times New Roman&quot; style=&quot;font-size: 24px;&quot;&gt;Wready&lt;/font&gt;" style="text;html=1;align=center;verticalAlign=middle;whiteSpace=wrap;rounded=0;" parent="1" vertex="1">
          <mxGeometry x="1510" y="-251.37" width="60" height="30" as="geometry" />
        </mxCell>
        <mxCell id="XOc9_vDRdyOMPMZFaufi-101" value="&lt;font face=&quot;Times New Roman&quot; style=&quot;font-size: 24px;&quot;&gt;Wvalid&lt;/font&gt;" style="text;html=1;align=center;verticalAlign=middle;resizable=0;points=[];autosize=1;strokeColor=none;fillColor=none;" parent="1" vertex="1">
          <mxGeometry x="1390" y="-255.87" width="90" height="40" as="geometry" />
        </mxCell>
        <mxCell id="XOc9_vDRdyOMPMZFaufi-102" value="&lt;font face=&quot;Times New Roman&quot; style=&quot;font-size: 24px;&quot;&gt;[31:0]Wdata&lt;/font&gt;" style="text;html=1;align=center;verticalAlign=middle;whiteSpace=wrap;rounded=0;" parent="1" vertex="1">
          <mxGeometry x="1280" y="-255.87" width="60" height="30" as="geometry" />
        </mxCell>
        <mxCell id="XOc9_vDRdyOMPMZFaufi-103" value="" style="edgeStyle=orthogonalEdgeStyle;rounded=0;orthogonalLoop=1;jettySize=auto;html=1;strokeWidth=3;" parent="1" edge="1">
          <mxGeometry relative="1" as="geometry">
            <mxPoint x="1654.29" y="-277.62" as="targetPoint" />
            <mxPoint x="1654.29" y="-149.12" as="sourcePoint" />
          </mxGeometry>
        </mxCell>
        <mxCell id="XOc9_vDRdyOMPMZFaufi-104" value="&lt;font face=&quot;Times New Roman&quot; style=&quot;font-size: 24px;&quot;&gt;Wlast&lt;/font&gt;" style="text;html=1;align=center;verticalAlign=middle;whiteSpace=wrap;rounded=0;" parent="1" vertex="1">
          <mxGeometry x="1600" y="-251.37" width="50" height="30" as="geometry" />
        </mxCell>
        <mxCell id="XOc9_vDRdyOMPMZFaufi-107" value="" style="endArrow=classic;html=1;rounded=0;exitX=0;exitY=0.318;exitDx=0;exitDy=0;exitPerimeter=0;strokeWidth=3;" parent="1" edge="1">
          <mxGeometry width="50" height="50" relative="1" as="geometry">
            <mxPoint x="1710" y="199.49999999999997" as="sourcePoint" />
            <mxPoint x="1900" y="200" as="targetPoint" />
          </mxGeometry>
        </mxCell>
        <mxCell id="XOc9_vDRdyOMPMZFaufi-108" value="" style="endArrow=classic;html=1;rounded=0;exitX=0;exitY=0.318;exitDx=0;exitDy=0;exitPerimeter=0;strokeWidth=3;" parent="1" edge="1">
          <mxGeometry width="50" height="50" relative="1" as="geometry">
            <mxPoint x="1710" y="157.37" as="sourcePoint" />
            <mxPoint x="1900" y="158" as="targetPoint" />
          </mxGeometry>
        </mxCell>
        <mxCell id="XOc9_vDRdyOMPMZFaufi-109" value="" style="endArrow=classic;html=1;rounded=0;exitX=0;exitY=0.318;exitDx=0;exitDy=0;exitPerimeter=0;strokeWidth=3;" parent="1" edge="1">
          <mxGeometry width="50" height="50" relative="1" as="geometry">
            <mxPoint x="1710" y="120.86999999999998" as="sourcePoint" />
            <mxPoint x="1900" y="120" as="targetPoint" />
          </mxGeometry>
        </mxCell>
        <mxCell id="XOc9_vDRdyOMPMZFaufi-110" value="&lt;font face=&quot;Times New Roman&quot; style=&quot;font-size: 24px;&quot;&gt;[31:0]highlighted_pixel&lt;/font&gt;" style="text;html=1;align=center;verticalAlign=middle;whiteSpace=wrap;rounded=0;" parent="1" vertex="1">
          <mxGeometry x="1790" y="127.36999999999999" width="70" height="30" as="geometry" />
        </mxCell>
        <mxCell id="XOc9_vDRdyOMPMZFaufi-111" value="&lt;font face=&quot;Times New Roman&quot; style=&quot;font-size: 24px;&quot;&gt;out_valid&lt;/font&gt;" style="text;html=1;align=center;verticalAlign=middle;whiteSpace=wrap;rounded=0;" parent="1" vertex="1">
          <mxGeometry x="1800" y="85.49999999999999" width="70" height="30" as="geometry" />
        </mxCell>
        <mxCell id="XOc9_vDRdyOMPMZFaufi-112" value="&lt;font face=&quot;Times New Roman&quot; style=&quot;font-size: 24px;&quot;&gt;pixel_last&lt;/font&gt;" style="text;html=1;align=center;verticalAlign=middle;whiteSpace=wrap;rounded=0;" parent="1" vertex="1">
          <mxGeometry x="1800" y="169.5" width="70" height="30" as="geometry" />
        </mxCell>
        <mxCell id="XOc9_vDRdyOMPMZFaufi-116" value="" style="endArrow=classic;html=1;rounded=0;strokeWidth=3;" parent="1" edge="1">
          <mxGeometry width="50" height="50" relative="1" as="geometry">
            <mxPoint x="1900" y="84" as="sourcePoint" />
            <mxPoint x="1710" y="83.61999999999999" as="targetPoint" />
          </mxGeometry>
        </mxCell>
        <mxCell id="XOc9_vDRdyOMPMZFaufi-118" value="&lt;font face=&quot;Times New Roman&quot; style=&quot;font-size: 24px;&quot;&gt;out_ready&lt;/font&gt;" style="text;html=1;align=center;verticalAlign=middle;resizable=0;points=[];autosize=1;strokeColor=none;fillColor=none;" parent="1" vertex="1">
          <mxGeometry x="1790" y="45.50000000000001" width="120" height="40" as="geometry" />
        </mxCell>
        <mxCell id="XOc9_vDRdyOMPMZFaufi-124" value="" style="endArrow=classic;html=1;rounded=0;strokeWidth=3;" parent="1" edge="1">
          <mxGeometry width="50" height="50" relative="1" as="geometry">
            <mxPoint y="124.60000000000001" as="sourcePoint" />
            <mxPoint x="160" y="124.60000000000001" as="targetPoint" />
          </mxGeometry>
        </mxCell>
        <mxCell id="XOc9_vDRdyOMPMZFaufi-125" value="" style="endArrow=classic;html=1;rounded=0;strokeWidth=3;" parent="1" edge="1">
          <mxGeometry width="50" height="50" relative="1" as="geometry">
            <mxPoint y="90.87" as="sourcePoint" />
            <mxPoint x="160" y="90.87" as="targetPoint" />
          </mxGeometry>
        </mxCell>
        <mxCell id="XOc9_vDRdyOMPMZFaufi-126" value="" style="endArrow=classic;html=1;rounded=0;strokeWidth=3;" parent="1" edge="1">
          <mxGeometry width="50" height="50" relative="1" as="geometry">
            <mxPoint x="-0.5" y="64.37" as="sourcePoint" />
            <mxPoint x="159.5" y="64.37" as="targetPoint" />
          </mxGeometry>
        </mxCell>
        <mxCell id="XOc9_vDRdyOMPMZFaufi-127" value="" style="endArrow=classic;html=1;rounded=0;strokeWidth=3;" parent="1" edge="1">
          <mxGeometry width="50" height="50" relative="1" as="geometry">
            <mxPoint y="39.6" as="sourcePoint" />
            <mxPoint x="160" y="39.6" as="targetPoint" />
          </mxGeometry>
        </mxCell>
        <mxCell id="XOc9_vDRdyOMPMZFaufi-128" value="" style="endArrow=classic;html=1;rounded=0;exitX=0;exitY=0.318;exitDx=0;exitDy=0;exitPerimeter=0;strokeWidth=3;" parent="1" edge="1">
          <mxGeometry width="50" height="50" relative="1" as="geometry">
            <mxPoint x="165" y="480" as="sourcePoint" />
            <mxPoint x="5" y="480" as="targetPoint" />
          </mxGeometry>
        </mxCell>
        <mxCell id="XOc9_vDRdyOMPMZFaufi-129" value="" style="endArrow=classic;html=1;rounded=0;strokeWidth=3;" parent="1" edge="1">
          <mxGeometry width="50" height="50" relative="1" as="geometry">
            <mxPoint x="5" y="446" as="sourcePoint" />
            <mxPoint x="165" y="446" as="targetPoint" />
          </mxGeometry>
        </mxCell>
        <mxCell id="XOc9_vDRdyOMPMZFaufi-130" value="&lt;font style=&quot;font-size: 24px;&quot; face=&quot;Times New Roman&quot;&gt;[9:0]height&lt;/font&gt;" style="text;html=1;align=center;verticalAlign=middle;whiteSpace=wrap;rounded=0;" parent="1" vertex="1">
          <mxGeometry x="-5" y="384.5" width="70" height="30" as="geometry" />
        </mxCell>
        <mxCell id="XOc9_vDRdyOMPMZFaufi-131" value="&lt;font face=&quot;Times New Roman&quot; style=&quot;font-size: 24px;&quot;&gt;[10:0]width&lt;/font&gt;" style="text;html=1;align=center;verticalAlign=middle;whiteSpace=wrap;rounded=0;" parent="1" vertex="1">
          <mxGeometry x="-5" y="355.5" width="70" height="30" as="geometry" />
        </mxCell>
        <mxCell id="XOc9_vDRdyOMPMZFaufi-132" value="&lt;font face=&quot;Times New Roman&quot; style=&quot;font-size: 24px;&quot;&gt;[7:0]threshold&lt;/font&gt;" style="text;html=1;align=center;verticalAlign=middle;whiteSpace=wrap;rounded=0;" parent="1" vertex="1">
          <mxGeometry x="-5" y="417" width="86" height="30" as="geometry" />
        </mxCell>
        <mxCell id="XOc9_vDRdyOMPMZFaufi-133" value="&lt;font face=&quot;Times New Roman&quot; style=&quot;font-size: 24px;&quot;&gt;lite_ready&lt;/font&gt;" style="text;html=1;align=center;verticalAlign=middle;resizable=0;points=[];autosize=1;strokeColor=none;fillColor=none;" parent="1" vertex="1">
          <mxGeometry x="-20.5" y="444" width="120" height="40" as="geometry" />
        </mxCell>
        <mxCell id="XOc9_vDRdyOMPMZFaufi-135" value="&lt;font face=&quot;Times New Roman&quot; style=&quot;font-size: 24px;&quot;&gt;lite_valid&lt;/font&gt;" style="text;html=1;align=center;verticalAlign=middle;whiteSpace=wrap;rounded=0;" parent="1" vertex="1">
          <mxGeometry x="-5" y="322" width="70" height="30" as="geometry" />
        </mxCell>
        <mxCell id="XOc9_vDRdyOMPMZFaufi-136" value="" style="endArrow=classic;html=1;rounded=0;strokeWidth=3;" parent="1" edge="1">
          <mxGeometry width="50" height="50" relative="1" as="geometry">
            <mxPoint x="5" y="413.23" as="sourcePoint" />
            <mxPoint x="165" y="413.23" as="targetPoint" />
          </mxGeometry>
        </mxCell>
        <mxCell id="XOc9_vDRdyOMPMZFaufi-137" value="" style="endArrow=classic;html=1;rounded=0;strokeWidth=3;" parent="1" edge="1">
          <mxGeometry width="50" height="50" relative="1" as="geometry">
            <mxPoint x="5" y="383.5" as="sourcePoint" />
            <mxPoint x="165" y="383.5" as="targetPoint" />
          </mxGeometry>
        </mxCell>
        <mxCell id="XOc9_vDRdyOMPMZFaufi-138" value="" style="endArrow=classic;html=1;rounded=0;strokeWidth=3;" parent="1" edge="1">
          <mxGeometry width="50" height="50" relative="1" as="geometry">
            <mxPoint x="4.5" y="353" as="sourcePoint" />
            <mxPoint x="164.5" y="353" as="targetPoint" />
          </mxGeometry>
        </mxCell>
        <mxCell id="VN-eHyt6kYfMbYtqsBXD-14" value="" style="edgeStyle=orthogonalEdgeStyle;rounded=0;orthogonalLoop=1;jettySize=auto;html=1;strokeWidth=3;" parent="1" edge="1">
          <mxGeometry relative="1" as="geometry">
            <mxPoint x="1080" y="120" as="targetPoint" />
            <mxPoint x="918" y="119.95" as="sourcePoint" />
            <Array as="points">
              <mxPoint x="967" y="119.94999999999955" />
            </Array>
          </mxGeometry>
        </mxCell>
        <mxCell id="pzHLP5PFSMqDfCKK6MuQ-24" value="&lt;font style=&quot;font-size: 24px;&quot;&gt;Motion Map&lt;/font&gt;&lt;div&gt;&lt;font style=&quot;font-size: 24px;&quot;&gt;Generator&lt;/font&gt;&lt;/div&gt;" style="rounded=0;whiteSpace=wrap;html=1;" parent="1" vertex="1">
          <mxGeometry x="560" y="11.5" width="358" height="210" as="geometry" />
        </mxCell>
        <mxCell id="pzHLP5PFSMqDfCKK6MuQ-36" value="&lt;span style=&quot;font-size: 24px;&quot;&gt;Bounding Box&lt;/span&gt;&lt;div&gt;&lt;span style=&quot;font-size: 24px;&quot;&gt;Generator&lt;/span&gt;&lt;/div&gt;" style="rounded=0;whiteSpace=wrap;html=1;" parent="1" vertex="1">
          <mxGeometry x="1080" y="8" width="340" height="210" as="geometry" />
        </mxCell>
        <mxCell id="pzHLP5PFSMqDfCKK6MuQ-39" value="&lt;font style=&quot;font-size: 18px;&quot; face=&quot;Times New Roman&quot;&gt;last_in_frame&lt;/font&gt;" style="text;html=1;align=center;verticalAlign=middle;resizable=0;points=[];autosize=1;strokeColor=none;fillColor=none;" parent="1" vertex="1">
          <mxGeometry x="1003" y="303" width="120" height="40" as="geometry" />
        </mxCell>
        <mxCell id="pzHLP5PFSMqDfCKK6MuQ-40" value="&lt;span style=&quot;text-wrap-mode: wrap;&quot;&gt;&lt;font face=&quot;Times New Roman&quot; style=&quot;font-size: 18px;&quot;&gt;[10:0]width&lt;/font&gt;&lt;/span&gt;" style="text;html=1;align=center;verticalAlign=middle;resizable=0;points=[];autosize=1;strokeColor=none;fillColor=none;" parent="1" vertex="1">
          <mxGeometry x="1150" y="303" width="110" height="40" as="geometry" />
        </mxCell>
        <mxCell id="pzHLP5PFSMqDfCKK6MuQ-41" value="&lt;span style=&quot;text-wrap-mode: wrap;&quot;&gt;&lt;font face=&quot;Times New Roman&quot; style=&quot;font-size: 18px;&quot;&gt;[9:0]height&lt;/font&gt;&lt;/span&gt;" style="text;html=1;align=center;verticalAlign=middle;resizable=0;points=[];autosize=1;strokeColor=none;fillColor=none;" parent="1" vertex="1">
          <mxGeometry x="1280" y="303" width="100" height="40" as="geometry" />
        </mxCell>
        <mxCell id="pzHLP5PFSMqDfCKK6MuQ-42" value="" style="edgeStyle=orthogonalEdgeStyle;rounded=0;orthogonalLoop=1;jettySize=auto;html=1;strokeWidth=3;entryX=0.112;entryY=0.993;entryDx=0;entryDy=0;entryPerimeter=0;" parent="1" edge="1">
          <mxGeometry relative="1" as="geometry">
            <mxPoint x="1120" y="218" as="targetPoint" />
            <mxPoint x="1120.3" y="403.5" as="sourcePoint" />
          </mxGeometry>
        </mxCell>
        <mxCell id="pzHLP5PFSMqDfCKK6MuQ-43" value="" style="edgeStyle=orthogonalEdgeStyle;rounded=0;orthogonalLoop=1;jettySize=auto;html=1;strokeWidth=3;entryX=0.112;entryY=0.993;entryDx=0;entryDy=0;entryPerimeter=0;" parent="1" edge="1">
          <mxGeometry relative="1" as="geometry">
            <mxPoint x="1249.5800000000002" y="220" as="targetPoint" />
            <mxPoint x="1249.8799999999999" y="405.5" as="sourcePoint" />
          </mxGeometry>
        </mxCell>
        <mxCell id="pzHLP5PFSMqDfCKK6MuQ-44" value="" style="edgeStyle=orthogonalEdgeStyle;rounded=0;orthogonalLoop=1;jettySize=auto;html=1;strokeWidth=3;entryX=0.112;entryY=0.993;entryDx=0;entryDy=0;entryPerimeter=0;" parent="1" edge="1">
          <mxGeometry relative="1" as="geometry">
            <mxPoint x="1379.17" y="221.5" as="targetPoint" />
            <mxPoint x="1379.47" y="407" as="sourcePoint" />
          </mxGeometry>
        </mxCell>
        <mxCell id="pzHLP5PFSMqDfCKK6MuQ-46" value="&lt;font face=&quot;Times New Roman&quot; style=&quot;font-size: 18px;&quot;&gt;motion_detected&lt;/font&gt;" style="text;html=1;align=center;verticalAlign=middle;resizable=0;points=[];autosize=1;strokeColor=none;fillColor=none;" parent="1" vertex="1">
          <mxGeometry x="926" y="80.5" width="140" height="40" as="geometry" />
        </mxCell>
        <mxCell id="pzHLP5PFSMqDfCKK6MuQ-61" value="" style="edgeStyle=orthogonalEdgeStyle;rounded=0;orthogonalLoop=1;jettySize=auto;html=1;strokeWidth=3;exitX=1;exitY=0.5;exitDx=0;exitDy=0;" parent="1" source="pzHLP5PFSMqDfCKK6MuQ-36" edge="1">
          <mxGeometry relative="1" as="geometry">
            <mxPoint x="1600" y="111.89000000000001" as="targetPoint" />
            <mxPoint x="1438" y="111.84" as="sourcePoint" />
            <Array as="points">
              <mxPoint x="1487" y="113" />
              <mxPoint x="1487" y="112" />
            </Array>
          </mxGeometry>
        </mxCell>
        <mxCell id="pzHLP5PFSMqDfCKK6MuQ-71" value="" style="endArrow=classic;startArrow=classic;html=1;rounded=0;exitX=0.5;exitY=1;exitDx=0;exitDy=0;strokeWidth=3;" parent="1" edge="1">
          <mxGeometry width="50" height="50" relative="1" as="geometry">
            <mxPoint x="305.33" y="202.5" as="sourcePoint" />
            <mxPoint x="305" y="403" as="targetPoint" />
          </mxGeometry>
        </mxCell>
        <mxCell id="pzHLP5PFSMqDfCKK6MuQ-62" value="&lt;font face=&quot;Times New Roman&quot; style=&quot;font-size: 18px;&quot;&gt;[31:0]highlighted_pixel&lt;/font&gt;" style="text;html=1;align=center;verticalAlign=middle;whiteSpace=wrap;rounded=0;" parent="1" vertex="1">
          <mxGeometry x="1474" y="79.5" width="70" height="30" as="geometry" />
        </mxCell>
        <mxCell id="XOc9_vDRdyOMPMZFaufi-41" value="&lt;font face=&quot;Times New Roman&quot; style=&quot;font-size: 18px;&quot;&gt;[31:0]pixel&lt;/font&gt;" style="text;html=1;align=center;verticalAlign=middle;whiteSpace=wrap;rounded=0;" parent="1" vertex="1">
          <mxGeometry x="460" y="85.5" width="70" height="30" as="geometry" />
        </mxCell>
        <mxCell id="pzHLP5PFSMqDfCKK6MuQ-26" value="&lt;font face=&quot;Times New Roman&quot; style=&quot;font-size: 18px;&quot;&gt;last_in_frame&lt;/font&gt;" style="text;html=1;align=center;verticalAlign=middle;resizable=0;points=[];autosize=1;strokeColor=none;fillColor=none;" parent="1" vertex="1">
          <mxGeometry x="490" y="309.5" width="120" height="40" as="geometry" />
        </mxCell>
        <mxCell id="pzHLP5PFSMqDfCKK6MuQ-29" value="&lt;font face=&quot;Times New Roman&quot; style=&quot;font-size: 18px;&quot;&gt;wr_background&lt;/font&gt;" style="text;html=1;align=center;verticalAlign=middle;resizable=0;points=[];autosize=1;strokeColor=none;fillColor=none;" parent="1" vertex="1">
          <mxGeometry x="613" y="309.5" width="140" height="40" as="geometry" />
        </mxCell>
        <mxCell id="pzHLP5PFSMqDfCKK6MuQ-32" value="&lt;font style=&quot;font-size: 18px;&quot;&gt;[7:0] threshold&lt;/font&gt;" style="text;html=1;align=center;verticalAlign=middle;resizable=0;points=[];autosize=1;strokeColor=none;fillColor=none;" parent="1" vertex="1">
          <mxGeometry x="748" y="309.5" width="140" height="40" as="geometry" />
        </mxCell>
        <mxCell id="pzHLP5PFSMqDfCKK6MuQ-33" value="" style="edgeStyle=orthogonalEdgeStyle;rounded=0;orthogonalLoop=1;jettySize=auto;html=1;strokeWidth=3;entryX=0.112;entryY=0.993;entryDx=0;entryDy=0;entryPerimeter=0;" parent="1" edge="1">
          <mxGeometry relative="1" as="geometry">
            <mxPoint x="610" y="221.5" as="targetPoint" />
            <mxPoint x="610.3" y="407" as="sourcePoint" />
          </mxGeometry>
        </mxCell>
        <mxCell id="pzHLP5PFSMqDfCKK6MuQ-34" value="" style="edgeStyle=orthogonalEdgeStyle;rounded=0;orthogonalLoop=1;jettySize=auto;html=1;strokeWidth=3;entryX=0.112;entryY=0.993;entryDx=0;entryDy=0;entryPerimeter=0;" parent="1" edge="1">
          <mxGeometry relative="1" as="geometry">
            <mxPoint x="745.59" y="221.5" as="targetPoint" />
            <mxPoint x="745.89" y="407" as="sourcePoint" />
          </mxGeometry>
        </mxCell>
        <mxCell id="pzHLP5PFSMqDfCKK6MuQ-35" value="" style="edgeStyle=orthogonalEdgeStyle;rounded=0;orthogonalLoop=1;jettySize=auto;html=1;strokeWidth=3;entryX=0.112;entryY=0.993;entryDx=0;entryDy=0;entryPerimeter=0;" parent="1" edge="1">
          <mxGeometry relative="1" as="geometry">
            <mxPoint x="876" y="221.5" as="targetPoint" />
            <mxPoint x="876.3" y="407" as="sourcePoint" />
          </mxGeometry>
        </mxCell>
        <mxCell id="713RPQ0c2F6om1EGbdfF-3" value="" style="edgeStyle=orthogonalEdgeStyle;rounded=0;orthogonalLoop=1;jettySize=auto;html=1;strokeWidth=3;" parent="1" edge="1">
          <mxGeometry relative="1" as="geometry">
            <mxPoint x="730" y="-149.12" as="targetPoint" />
            <mxPoint x="730" y="-272.62" as="sourcePoint" />
          </mxGeometry>
        </mxCell>
        <mxCell id="713RPQ0c2F6om1EGbdfF-4" value="&lt;font face=&quot;Times New Roman&quot; style=&quot;font-size: 24px;&quot;&gt;Rlast&lt;/font&gt;" style="text;html=1;align=center;verticalAlign=middle;resizable=0;points=[];autosize=1;strokeColor=none;fillColor=none;" parent="1" vertex="1">
          <mxGeometry x="660" y="-260.87" width="70" height="40" as="geometry" />
        </mxCell>
      </root>
    </mxGraphModel>
  </diagram>
</mxfile>
